<svg width="29" height="28" viewBox="0 0 29 28" fill="none" xmlns="http://www.w3.org/2000/svg">
<path d="M21.2832 18.667V18.8747L21.4304 19.0213L23.6263 21.208V21.667H5.88184V21.208L8.07771 19.0213L8.22489 18.8747V18.667V12.8337C8.22489 9.41621 10.0253 6.67516 13.1116 5.94696L13.4968 5.85608V5.46033V4.66699C13.4968 3.97676 14.0559 3.41699 14.7541 3.41699C15.4522 3.41699 16.0113 3.97676 16.0113 4.66699V5.46033V5.85576L16.3961 5.94687C19.4714 6.67501 21.2832 9.42832 21.2832 12.8337V18.667ZM16.5267 23.8337C16.3064 24.5994 15.5939 25.167 14.7541 25.167C13.9056 25.167 13.1985 24.6003 12.9805 23.8337H16.5267Z" fill="white" stroke="#C2CFE0"/>
<path d="M20.6119 12.1663C23.4741 12.1663 25.798 9.8551 25.798 6.99967C25.798 4.14425 23.4741 1.83301 20.6119 1.83301C17.7496 1.83301 15.4258 4.14425 15.4258 6.99967C15.4258 9.8551 17.7496 12.1663 20.6119 12.1663Z" fill="#F7685B" stroke="white"/>
</svg>
